<svg width="491" height="411" viewBox="0 0 491 411" fill="none" xmlns="http://www.w3.org/2000/svg">
<path fill-rule="evenodd" clip-rule="evenodd" d="M490.332 245.166C490.332 309.084 465.871 367.29 425.8 410.932C415.582 361.525 367.923 321.031 304.496 305.206C335.981 286.851 356.933 254.176 356.933 216.926C356.933 159.513 307.162 112.971 245.767 112.971C184.372 112.971 134.601 159.513 134.601 216.926C134.601 254.035 155.395 286.604 186.681 304.997C122.833 320.673 74.7965 361.308 64.5337 410.934C24.4614 367.292 0 309.085 0 245.166C0 109.765 109.765 0 245.166 0C380.567 0 490.332 109.765 490.332 245.166Z" fill="#D51E0B"/>
</svg>
